<svg version="1.1" id="Capa_1" xmlns="http://www.w3.org/2000/svg" x="0px" y="0px"
	 viewBox="0 0 206.549 206.549" style="enable-background:new 0 0 206.549 206.549;" xml:space="preserve">
<path d="M175.27,46.391L175.27,46.391c-22.05-7.205-46.096,7.51-52.205,31.946l-17.383,84.039
	c-4.644,18.575,4.712,37.146,21.474,42.623v0c16.761,5.477,35.278-3.987,42.498-21.72l28.887-80.28
	C208.038,79.67,197.32,53.596,175.27,46.391z M161.555,164.638c-0.789,1.014-1.968,1.545-3.16,1.545
	c-0.857,0-1.722-0.274-2.451-0.842c-1.744-1.354-2.06-3.867-0.706-5.612c0.275-0.354,27.434-35.708,21.728-60.22
	c-1.805-7.75-6.683-13.466-14.912-17.475c-6.665-3.245-11.98-3.467-16.251-0.677c-13.361,8.724-14.969,44.188-14.46,57.117
	c0.087,2.208-1.633,4.067-3.84,4.154c-2.228,0.08-4.066-1.633-4.154-3.84c-0.205-5.222-1.441-51.384,18.08-64.13
	c5.729-3.74,12.463-4.242,20.056-1.53c0.013-0.041,0.016-0.082,0.031-0.123l3.352-9.271c0.752-2.078,3.051-3.149,5.121-2.402
	c2.078,0.751,3.153,3.044,2.402,5.121l-3.352,9.271c-0.102,0.281-0.24,0.536-0.394,0.779c8.587,5.025,14.008,12.138,16.115,21.203
	C191.32,125.933,162.773,163.07,161.555,164.638z M100.868,117.82L83.485,33.78C77.376,9.344,53.33-5.37,31.28,1.834h0
	C9.229,9.039-1.489,35.113,8.009,58.442l28.887,80.28c7.22,17.733,25.736,27.197,42.498,21.72l0,0
	C96.155,154.966,105.512,136.395,100.868,117.82z M83.201,94.233c-0.087,2.206-1.916,3.919-4.153,3.839
	c-2.207-0.086-3.927-1.945-3.841-4.152c0.502-12.935-1.117-48.412-14.462-57.12c-4.273-2.787-9.588-2.564-16.248,0.679
	c-8.233,4.011-13.111,9.729-14.914,17.484c-5.706,24.553,21.453,59.854,21.729,60.208c1.355,1.744,1.041,4.257-0.703,5.613
	c-0.729,0.567-1.595,0.842-2.452,0.842c-1.192,0-2.372-0.53-3.161-1.545c-1.218-1.567-29.765-38.704-23.204-66.93
	c2.106-9.064,7.528-16.178,16.115-21.202c-0.154-0.242-0.292-0.498-0.394-0.779l-3.353-9.271c-0.751-2.078,0.324-4.371,2.401-5.122
	c2.076-0.748,4.371,0.324,5.122,2.401l3.353,9.271c0.015,0.041,0.018,0.083,0.031,0.124c7.592-2.713,14.326-2.212,20.055,1.529
	C84.642,42.849,83.406,89.011,83.201,94.233z"/>
<g>
</g>
<g>
</g>
<g>
</g>
<g>
</g>
<g>
</g>
<g>
</g>
<g>
</g>
<g>
</g>
<g>
</g>
<g>
</g>
<g>
</g>
<g>
</g>
<g>
</g>
<g>
</g>
<g>
</g>
</svg>
